/* XPM */
static const char *collectibles[] = {
/* columns rows colors chars-per-pixel */
"32 32 4 1 ",
"  c #B0AAAA",
". c #C6C4C4",
"X c gray87",
"o c None",
/* pixels */
"oooooooooooooooooooooooooooooooo",
"oooooooooooooooooooooooooooooooo",
"oooooooooooooooooooooooooooooooo",
"oooooooooooooooooooooooooooooooo",
"oooooooooooooooooooooooooooooooo",
"oooooooooooooooooooooooooooooooo",
"oooooooooooooooooooooooooooooooo",
"oooooooooooooooooooooooooooooooo",
"oooooooooooooooooooooooooooooooo",
"oooooooooooooooooooooooooooooooo",
"oooooooooooooooooooooooooooooooo",
"oooooooooooooooooooooooooooooooo",
"oooooooo.XXXXooooooooooooooooooo",
"ooooooo.XXXXXXoooooooooooooooooo",
"ooooooo.X .X .oooooooooooooooooo",
"ooooooo.XXXXXXoooooooooooooooooo",
"oooooooo.XXXXXoooooooooooooooooo",
"ooooooooo.Xo.Xoooooooooooooooooo",
"oooooooooooooooooooooooooooooooo",
"ooooooooooooooooooo.Xooooooooooo",
"oooooooooooooo.XXXXXXXoooooooooo",
"ooooooooooooooo.Xooooooooooooooo",
"oooooooooooooooooooooooooooooooo",
"oooooooooooooooooooooooooooooooo",
"oooooooooooooooooooooooooooooooo",
"oooooooooooooooooooooooooooooooo",
"oooooooooooooooooooooooooooooooo",
"oooooooooooooooooooooooooooooooo",
"oooooooooooooooooooooooooooooooo",
"oooooooooooooooooooooooooooooooo",
"oooooooooooooooooooooooooooooooo",
"oooooooooooooooooooooooooooooooo"
};
