/* XPM */
static const char *collectible[] = {
/* columns rows colors chars-per-pixel */
"32 32 8 1 ",
"  c #494949",
". c #515150",
"X c #5A5A59",
"o c #5D5D5C",
"O c #696967",
"+ c #B0AAAA",
"@ c #C6C4C4",
"# c gray87",
/* pixels */
"XXXXXXXXXXXXXXXXXXXXXXXXXXXXXXXX",
"XXXXXXXXXXXXXXXXXXXXXXXXXXXXXXXX",
"XXXXXXXXXXXXXXXXXXXXXXXXXXXXXXXX",
"XXXXXXXXXXXXXXXXXXXXXXXXXXXXXXXX",
"XXXXXXXXXXXXXXXXXXXXXXXXXXXXXXXX",
"XXXXXXXXXXXXXXXXXXXXXXXXXXXXXXXX",
"XXXXXXXXXXXXXXXXXXXXXXXXXXXXXXXX",
"XXXXXXXXXXXXXXXXXXXXXXXXXXXXXXXX",
"XXXXXXXXXXXXXXXXXXXXXXXXXXXXXXXX",
"XXXXXXXXXXXXXOOXXXXXXXXXXXXXXXXX",
"XXXXXXXXXXXXXOOXXXXXXXXXXXXXXXXX",
"XXXXXXXXXXXXXXXXXXXXXXXXXXXXXXXX",
"XXXXXXXX@####XXXXXXXXXXXXXXXXXXX",
"XXXXXXX@######XXXXXXXXXXXXXXXXXX",
"XXXXXXX@#+@#+@XXXXXXXXXXXXXXXXXX",
"XXXXXXX@######XXXXXXXXXXXXXXXXXX",
"XXXOXXX.@#####XXXO  XXXXXXXXXXXX",
"XXXXXX...@#.@#.XXO  XXXXXXXXXXXX",
"XXXXXXX.......  XXXXXXXXXXXXXXXX",
"XXXXXXXXXXXXXO  XXX@#XXXXXXXXXXX",
"XXXXXXXXXXXXXo@#######.XXXXXXXXX",
"XXXXXXXXXXXXXX.@#.....XXXXXXXXXX",
"XXXXXXXXXXXXXXXXXXXXXXXXXXXXXXXX",
"XXXXXXXXXXXXXXXXXXXXXXXXXXXXXXXX",
"XXXXXXXXXXXXXXXXXXXXXXXXXXXXXXXX",
"XXXXXXXXXXXXXXXXXXXXXXXXXXXXXXXX",
"XXXXXXXXXXXXXXXXXXXXXXXXXXXXXXXX",
"XXXXXXXXXXXXXXXXXXXXXXXXXXXXXXXX",
"XXXXXXXXXXXXXXXXXXXXXXXXXXXXXXXX",
"XXXXXXXXXXXXXXXXXXXXXXXXXXXXXXXX",
"XXXXXXXXXXXXXXXXXXXXXXXXXXXXXXXX",
"XXXXXXXXXXXXXXXXXXXXXXXXXXXXXXXX"
};
