/* XPM */
static const char *exit[] = {
/* columns rows colors chars-per-pixel */
"32 32 7 1 ",
"  c #2F2F2E",
". c #54443B",
"X c #7C4E2E",
"o c #5A5A59",
"O c #696967",
"+ c #99643E",
"@ c #B97F56",
/* pixels */
"oooooooooooooooooooooooooooooooo",
"oooooooooooooooooooooooooooooooo",
"oooooooooooooooooooooooooooooooo",
"oooooooooooooooooooooooooooooooo",
"oooooooooooooooooooooooooooooooo",
"oooooooooooooooooooooooooooooooo",
"oooooooooooooooooooooooooooooooo",
"oooooooooooooooooooooooooooooooo",
"oooooooooooooooooooooooooooooooo",
"oooooooooooooOOooooooooooooooooo",
"oooooooooooooOOooooooooooooooooo",
"oooooooooooooooooooooooooooooooo",
"oooooooooooooooooooooooooooooooo",
"oooooooo   ooooooooo   ooooooooo",
"ooooooo @@@ ooooooo @@@ oooooooo",
"ooooooo X++ ooooooo X++ oooooooo",
"oooOooo X++         X++ oooooooo",
"ooooooo X++@@@@@@@@@@++ oooooooo",
"ooooooo X++++++++++++++ oooooooo",
"ooooooo X++         X++ oooooooo",
"ooooooo X++         X++ oooooooo",
"ooooo.. X++@@@@@@@@@@++ ..oooooo",
"oooo... X++++++++++++++ ...ooooo",
"ooo.... X++         X++ ....oooo",
"ooo..   XXX         XXX   ..oooo",
"oooo                       ooooo",
"ooooo                     oooooo",
"ooooooo                 oooooooo",
"oooooooooo           ooooooooooo",
"oooooooooooooooooooooooooooooooo",
"oooooooooooooooooooooooooooooooo",
"oooooooooooooooooooooooooooooooo"
};
