/* XPM */
static const char *wall[] = {
/* columns rows colors chars-per-pixel */
"32 32 6 1 ",
"  c #2F2F2E",
". c #5A5A59",
"X c #676767",
"o c #696967",
"O c gray43",
"+ c gray54",
/* pixels */
"......................   .......",
"..................... ... ......",
"...................  OOO. ......",
".................. .XXXX. ......",
"................  ....... ......",
"..............  ..+++.++. ......",
"............. ....OO.OOO. ......",
"............ .......OO... ......",
"........... ....X.XX..XX. ......",
".......... .............. ......",
"......... ....+++++++.++. ......",
"........ ....OOOOOOOO.OO. ......",
"........ ..OO..OOOOOO.OO. ......",
"........ ..XXXX.XXXXX.XX. ......",
"......  .................  .....",
"..... +.++.++.++++.+++++.++ ....",
"...o ++.OOO...OOOO.OOOOO.++ ....",
".... ++.OOOOO.OOOO.OOOOO.++ ....",
".... ++.XXXXX.XXXX.XXXXX.+ .....",
".... ++..................+ .....",
".... ++.++.++++++.+++.++.++ ....",
".... ++.OO.OOOOOOO....OO.++ ....",
".... ++.OO.OO..OOOOOO.OO.++ ....",
".... ++.XX.....XXXXXX.XX.++ ....",
".... ++..................++ ....",
".... X++++++++++++++O++++++ ....",
"..... X+++++++++++OOXO+++++ ....",
"..... XXOOOOOOOOOOXXXOOOOOO ....",
"..... XXXXXXXXXXXXXXXXXXXXX ....",
".... XXXXXXXXXXXXXXXXXXXXXX ....",
".... XXXXXXXXXXXXXXXXXXXXXX ....",
".... XXXXXXXXXXXXXXXXXXXXX ....."
};
